<svg width="40" height="40" viewBox="0 0 40 40" fill="none" xmlns="http://www.w3.org/2000/svg">
<rect width="40" height="40" rx="20" fill="#90121A"/>
<path d="M24.19 9H15.81C12.17 9 10 11.17 10 14.81V23.19C10 26.83 12.17 29 15.81 29H24.19C27.83 29 30 26.83 30 23.19V14.81C30 11.17 27.83 9 24.19 9ZM17.97 21.9L15.72 24.15C15.57 24.3 15.38 24.37 15.19 24.37C15 24.37 14.8 24.3 14.66 24.15L13.91 23.4C13.61 23.11 13.61 22.63 13.91 22.34C14.2 22.05 14.67 22.05 14.97 22.34L15.19 22.56L16.91 20.84C17.2 20.55 17.67 20.55 17.97 20.84C18.26 21.13 18.26 21.61 17.97 21.9ZM17.97 14.9L15.72 17.15C15.57 17.3 15.38 17.37 15.19 17.37C15 17.37 14.8 17.3 14.66 17.15L13.91 16.4C13.61 16.11 13.61 15.63 13.91 15.34C14.2 15.05 14.67 15.05 14.97 15.34L15.19 15.56L16.91 13.84C17.2 13.55 17.67 13.55 17.97 13.84C18.26 14.13 18.26 14.61 17.97 14.9ZM25.56 23.62H20.31C19.9 23.62 19.56 23.28 19.56 22.87C19.56 22.46 19.9 22.12 20.31 22.12H25.56C25.7589 22.12 25.9497 22.199 26.0903 22.3397C26.231 22.4803 26.31 22.6711 26.31 22.87C26.31 23.0689 26.231 23.2597 26.0903 23.4003C25.9497 23.541 25.7589 23.62 25.56 23.62ZM25.56 16.62H20.31C19.9 16.62 19.56 16.28 19.56 15.87C19.56 15.46 19.9 15.12 20.31 15.12H25.56C25.7589 15.12 25.9497 15.199 26.0903 15.3397C26.231 15.4803 26.31 15.6711 26.31 15.87C26.31 16.0689 26.231 16.2597 26.0903 16.4003C25.9497 16.541 25.7589 16.62 25.56 16.62Z" fill="white"/>
</svg>
