<svg width="40" height="40" viewBox="0 0 40 40" fill="none" xmlns="http://www.w3.org/2000/svg">
<rect width="40" height="40" rx="20" fill="#90121A"/>
<path d="M28.8067 17.6905C28.4177 17.634 28.0464 17.4905 27.7206 17.2706C27.3947 17.0507 27.1227 16.7602 26.9247 16.4206C26.7267 16.081 26.6079 15.7011 26.577 15.3092C26.5462 14.9173 26.6042 14.5236 26.7467 14.1572C26.8372 13.9177 26.8506 13.6558 26.7848 13.4083C26.7191 13.1609 26.5775 12.9402 26.38 12.7772C25.508 12.045 24.5155 11.4698 23.4467 11.0772C23.2033 10.9868 22.9376 10.9755 22.6874 11.0449C22.4372 11.1143 22.2153 11.261 22.0533 11.4639C21.8095 11.7756 21.4979 12.0278 21.1421 12.2012C20.7864 12.3746 20.3958 12.4647 20 12.4647C19.6042 12.4647 19.2136 12.3746 18.8579 12.2012C18.5021 12.0278 18.1905 11.7756 17.9467 11.4639C17.7847 11.261 17.5628 11.1143 17.3126 11.0449C17.0624 10.9755 16.7967 10.9868 16.5533 11.0772C15.5665 11.4396 14.6437 11.9572 13.82 12.6105C13.6124 12.7749 13.4628 13.0014 13.3932 13.257C13.3237 13.5125 13.3377 13.7836 13.4333 14.0305C13.5872 14.4066 13.6507 14.8135 13.6189 15.2185C13.5871 15.6236 13.4608 16.0155 13.2501 16.363C13.0395 16.7104 12.7503 17.0036 12.4059 17.2191C12.0614 17.4346 11.6713 17.5664 11.2667 17.6039C11.004 17.6319 10.7573 17.7436 10.5629 17.9224C10.3685 18.1013 10.2366 18.3378 10.1867 18.5972C10.0625 19.2117 10 19.837 10 20.4639C9.9991 20.9887 10.0415 21.5127 10.1267 22.0305C10.1691 22.2982 10.2985 22.5445 10.4949 22.7313C10.6914 22.9181 10.9438 23.035 11.2133 23.0639C11.6268 23.1027 12.025 23.2399 12.3745 23.4642C12.724 23.6884 13.0147 23.9932 13.2223 24.3528C13.4299 24.7125 13.5483 25.1167 13.5676 25.5315C13.5869 25.9463 13.5066 26.3598 13.3333 26.7372C13.22 26.9827 13.1918 27.259 13.2534 27.5223C13.315 27.7856 13.4628 28.0208 13.6733 28.1905C14.5401 28.9094 15.5231 29.4753 16.58 29.8638C16.7152 29.9107 16.857 29.9354 17 29.9372C17.1961 29.9368 17.3893 29.8893 17.5633 29.7988C17.7373 29.7084 17.887 29.5775 18 29.4172C18.2376 29.071 18.5561 28.788 18.9279 28.5928C19.2997 28.3977 19.7135 28.2962 20.1333 28.2972C20.5402 28.2977 20.9413 28.3932 21.3047 28.5761C21.6681 28.7589 21.9838 29.0241 22.2267 29.3505C22.3882 29.5677 22.617 29.7253 22.8775 29.7988C23.1379 29.8724 23.4154 29.8577 23.6667 29.7572C24.6331 29.3682 25.5329 28.8306 26.3333 28.1638C26.5344 27.9976 26.6776 27.7719 26.7423 27.5191C26.807 27.2663 26.7898 26.9996 26.6933 26.7572C26.5365 26.386 26.4682 25.9834 26.4936 25.5812C26.5191 25.1791 26.6377 24.7883 26.84 24.4398C27.0424 24.0914 27.323 23.7947 27.6597 23.5732C27.9963 23.3518 28.3799 23.2117 28.78 23.1638C29.0395 23.128 29.2808 23.0104 29.4689 22.8282C29.6571 22.646 29.7824 22.4087 29.8267 22.1505C29.9337 21.5945 29.9917 21.0301 30 20.4639C30.0001 19.8666 29.9443 19.2707 29.8333 18.6839C29.7883 18.4314 29.6649 18.1995 29.4806 18.0212C29.2963 17.8429 29.0605 17.7272 28.8067 17.6905ZM23.3333 20.4639C23.3333 21.1231 23.1378 21.7676 22.7716 22.3158C22.4053 22.8639 21.8847 23.2912 21.2756 23.5434C20.6665 23.7957 19.9963 23.8618 19.3497 23.7331C18.7031 23.6045 18.1092 23.287 17.643 22.8209C17.1768 22.3547 16.8593 21.7608 16.7307 21.1142C16.6021 20.4676 16.6681 19.7973 16.9204 19.1882C17.1727 18.5792 17.5999 18.0586 18.1481 17.6923C18.6963 17.326 19.3407 17.1305 20 17.1305C20.8841 17.1305 21.7319 17.4817 22.357 18.1068C22.9821 18.732 23.3333 19.5798 23.3333 20.4639Z" fill="white"/>
</svg>
