<svg width="40" height="40" viewBox="0 0 40 40" fill="none" xmlns="http://www.w3.org/2000/svg">
<rect width="40" height="40" rx="20" fill="#90121A"/>
<path d="M29.4502 20.9642H22.5188C22.2158 20.9642 21.9689 21.2111 21.9689 21.514C21.9689 21.6683 22.0345 21.8072 22.1367 21.9075L27.0174 26.7882C27.069 26.8436 27.1314 26.8878 27.2008 26.9181C27.2702 26.9483 27.3451 26.9639 27.4208 26.9639C27.5111 26.9641 27.6 26.942 27.6798 26.8996C27.7595 26.8572 27.8276 26.7957 27.8779 26.7207C29.0779 25.3279 29.8495 23.5588 29.9885 21.6123C29.9961 21.5801 30 21.5471 30 21.5139C30.0001 21.4417 29.9858 21.3702 29.9582 21.3035C29.9306 21.2368 29.8901 21.1762 29.839 21.1251C29.788 21.074 29.7273 21.0336 29.6606 21.0059C29.5939 20.9783 29.5224 20.9641 29.4502 20.9642ZM20.4256 11C20.1226 11.0019 19.8777 11.2469 19.8777 11.5498V19.2529C19.8777 19.5578 20.1226 19.8047 20.4256 19.8047H28.1307C28.4336 19.8047 28.6805 19.5578 28.6805 19.2529C28.4084 14.8198 24.8607 11.2721 20.4256 11Z" fill="white"/>
<path d="M24.6597 26.3397L18.9765 20.6564C18.88 20.558 18.8222 20.421 18.8222 20.2725L18.8201 12.2451C18.8202 12.1732 18.8061 12.1019 18.7785 12.0354C18.751 11.9689 18.7107 11.9085 18.6598 11.8576C18.6089 11.8067 18.5485 11.7664 18.482 11.7389C18.4155 11.7114 18.3442 11.6972 18.2723 11.6973C13.6558 11.979 10 15.8141 10 20.5001C10 25.3712 13.9491 29.3222 18.8201 29.3222C21.0425 29.3222 23.072 28.5004 24.6231 27.1441C24.6842 27.0929 24.7334 27.0288 24.7671 26.9565C24.8008 26.8841 24.8181 26.8053 24.818 26.7255C24.8178 26.5811 24.761 26.4426 24.6597 26.3397Z" fill="white"/>
</svg>
