<svg width="343" height="343" viewBox="0 0 343 343" fill="none" xmlns="http://www.w3.org/2000/svg">
<rect x="0.5" y="0.5" width="342" height="342" rx="23.5" stroke="#939393" stroke-dasharray="4 4"/>
<path d="M171 165.333C173.209 165.333 175 163.542 175 161.333C175 159.124 173.209 157.333 171 157.333C168.791 157.333 167 159.124 167 161.333C167 163.542 168.791 165.333 171 165.333Z" stroke="#939393" stroke-width="1.5" stroke-linecap="round" stroke-linejoin="round"/>
<path d="M159 166.4V156.266C159 154.773 159 154.026 159.291 153.456C159.546 152.954 159.954 152.546 160.456 152.29C161.026 152 161.773 152 163.267 152H164.673C164.837 152 164.919 152 164.994 151.991C165.389 151.946 165.743 151.727 165.96 151.394C166.001 151.331 166.038 151.257 166.111 151.111C166.258 150.818 166.331 150.671 166.414 150.543C166.848 149.878 167.556 149.441 168.345 149.35C168.496 149.333 168.66 149.333 168.988 149.333H173.012C173.34 149.333 173.504 149.333 173.655 149.35C174.444 149.441 175.152 149.878 175.586 150.543C175.669 150.671 175.742 150.818 175.889 151.111C175.962 151.257 175.999 151.331 176.04 151.394C176.257 151.727 176.611 151.946 177.006 151.991C177.081 152 177.163 152 177.327 152H178.733C180.227 152 180.974 152 181.544 152.29C182.046 152.546 182.454 152.954 182.709 153.456C183 154.026 183 154.773 183 156.266V166.4C183 167.893 183 168.64 182.709 169.21C182.454 169.712 182.046 170.12 181.544 170.376C180.974 170.666 180.227 170.666 178.733 170.666H163.267C161.773 170.666 161.026 170.666 160.456 170.376C159.954 170.12 159.546 169.712 159.291 169.21C159 168.64 159 167.893 159 166.4Z" stroke="#939393" stroke-width="1.5" stroke-linecap="round" stroke-linejoin="round"/>
<path d="M144.401 195L143.41 192.177H139.486L138.495 195H137.203L140.84 185.136H142.057L145.693 195H144.401ZM141.394 186.729L139.849 191.131H143.048L141.503 186.729H141.394ZM149.59 195.13C148.646 195.13 147.895 194.784 147.334 194.091C146.773 193.398 146.493 192.473 146.493 191.315C146.493 190.162 146.773 189.24 147.334 188.547C147.899 187.85 148.651 187.501 149.59 187.501C150.105 187.501 150.565 187.617 150.971 187.85C151.381 188.077 151.691 188.392 151.9 188.793H152.003V184.705H153.179V195H152.058V193.824H151.948C151.716 194.234 151.392 194.556 150.978 194.788C150.563 195.016 150.1 195.13 149.59 195.13ZM149.863 188.561C149.193 188.561 148.667 188.807 148.284 189.299C147.901 189.786 147.71 190.459 147.71 191.315C147.71 192.177 147.899 192.851 148.277 193.339C148.66 193.826 149.189 194.07 149.863 194.07C150.533 194.07 151.062 193.824 151.449 193.332C151.837 192.84 152.03 192.168 152.03 191.315C152.03 190.472 151.834 189.802 151.442 189.306C151.055 188.809 150.529 188.561 149.863 188.561ZM158.189 195.13C157.246 195.13 156.494 194.784 155.934 194.091C155.373 193.398 155.093 192.473 155.093 191.315C155.093 190.162 155.373 189.24 155.934 188.547C156.499 187.85 157.251 187.501 158.189 187.501C158.704 187.501 159.165 187.617 159.57 187.85C159.98 188.077 160.29 188.392 160.5 188.793H160.603V184.705H161.778V195H160.657V193.824H160.548C160.315 194.234 159.992 194.556 159.577 194.788C159.162 195.016 158.7 195.13 158.189 195.13ZM158.463 188.561C157.793 188.561 157.267 188.807 156.884 189.299C156.501 189.786 156.31 190.459 156.31 191.315C156.31 192.177 156.499 192.851 156.877 193.339C157.26 193.826 157.788 194.07 158.463 194.07C159.133 194.07 159.661 193.824 160.049 193.332C160.436 192.84 160.63 192.168 160.63 191.315C160.63 190.472 160.434 189.802 160.042 189.306C159.655 188.809 159.128 188.561 158.463 188.561ZM171.602 187.501C172.54 187.501 173.29 187.847 173.851 188.54C174.416 189.233 174.698 190.158 174.698 191.315C174.698 192.468 174.416 193.394 173.851 194.091C173.285 194.784 172.536 195.13 171.602 195.13C171.077 195.13 170.613 195.023 170.207 194.809C169.801 194.59 169.498 194.285 169.298 193.893H169.188V197.461H168.013V187.631H169.134V188.861H169.243C169.48 188.438 169.806 188.105 170.221 187.863C170.64 187.622 171.1 187.501 171.602 187.501ZM171.321 194.07C171.996 194.07 172.524 193.826 172.907 193.339C173.29 192.851 173.481 192.177 173.481 191.315C173.481 190.454 173.29 189.78 172.907 189.292C172.529 188.804 172.003 188.561 171.328 188.561C170.663 188.561 170.134 188.809 169.742 189.306C169.35 189.798 169.154 190.468 169.154 191.315C169.154 192.159 169.348 192.828 169.735 193.325C170.127 193.822 170.656 194.07 171.321 194.07ZM176.612 195V184.705H177.788V188.793H177.897C178.084 188.378 178.369 188.059 178.752 187.836C179.139 187.613 179.611 187.501 180.167 187.501C180.951 187.501 181.571 187.743 182.026 188.226C182.482 188.704 182.71 189.372 182.71 190.229V195H181.534V190.516C181.534 189.212 180.967 188.561 179.832 188.561C179.185 188.561 178.681 188.75 178.321 189.128C177.966 189.502 177.788 190.005 177.788 190.639V195H176.612ZM190.366 194.111C189.76 194.79 188.933 195.13 187.885 195.13C186.837 195.13 186.007 194.79 185.396 194.111C184.79 193.428 184.487 192.496 184.487 191.315C184.487 190.131 184.79 189.199 185.396 188.52C186.003 187.84 186.832 187.501 187.885 187.501C188.938 187.501 189.767 187.84 190.373 188.52C190.979 189.199 191.282 190.131 191.282 191.315C191.282 192.496 190.977 193.428 190.366 194.111ZM186.271 193.353C186.65 193.831 187.188 194.07 187.885 194.07C188.582 194.07 189.12 193.831 189.498 193.353C189.876 192.869 190.065 192.19 190.065 191.315C190.065 190.44 189.876 189.764 189.498 189.285C189.12 188.802 188.582 188.561 187.885 188.561C187.188 188.561 186.65 188.802 186.271 189.285C185.893 189.764 185.704 190.44 185.704 191.315C185.704 192.19 185.893 192.869 186.271 193.353ZM193.62 185.724H194.796V187.631H196.437V188.615H194.796V192.785C194.796 193.218 194.882 193.533 195.056 193.729C195.229 193.924 195.507 194.022 195.89 194.022C196.058 194.022 196.241 194.013 196.437 193.995V194.986C196.177 195.032 195.947 195.055 195.746 195.055C194.985 195.055 194.44 194.902 194.112 194.597C193.784 194.291 193.62 193.788 193.62 193.086V188.615H192.431V187.631H193.62V185.724ZM203.614 194.111C203.008 194.79 202.181 195.13 201.133 195.13C200.085 195.13 199.255 194.79 198.645 194.111C198.038 193.428 197.735 192.496 197.735 191.315C197.735 190.131 198.038 189.199 198.645 188.52C199.251 187.84 200.08 187.501 201.133 187.501C202.186 187.501 203.015 187.84 203.621 188.52C204.227 189.199 204.53 190.131 204.53 191.315C204.53 192.496 204.225 193.428 203.614 194.111ZM199.52 193.353C199.898 193.831 200.436 194.07 201.133 194.07C201.83 194.07 202.368 193.831 202.746 193.353C203.124 192.869 203.313 192.19 203.313 191.315C203.313 190.44 203.124 189.764 202.746 189.285C202.368 188.802 201.83 188.561 201.133 188.561C200.436 188.561 199.898 188.802 199.52 189.285C199.141 189.764 198.952 190.44 198.952 191.315C198.952 192.19 199.141 192.869 199.52 193.353Z" fill="#939393"/>
</svg>
