<svg width="40" height="40" viewBox="0 0 40 40" fill="none" xmlns="http://www.w3.org/2000/svg">
<path d="M29.4608 18.699L29.4594 18.6977L21.301 10.5396C20.9532 10.1916 20.4909 10 19.9991 10C19.5073 10 19.045 10.1915 18.6971 10.5394L10.5429 18.6934C10.5402 18.6961 10.5374 18.699 10.5347 18.7018C9.82056 19.42 9.82181 20.5853 10.5382 21.3017C10.8655 21.6291 11.2978 21.8188 11.76 21.8386C11.7787 21.8405 11.7977 21.8414 11.8167 21.8414H12.1419V27.8453C12.1419 29.0334 13.1085 30 14.2969 30H17.4887C17.8122 30 18.0746 29.7377 18.0746 29.4141V24.707C18.0746 24.1649 18.5156 23.7239 19.0578 23.7239H20.9404C21.4826 23.7239 21.9235 24.1649 21.9235 24.707V29.4141C21.9235 29.7377 22.1858 30 22.5095 30H25.7013C26.8897 30 27.8563 29.0334 27.8563 27.8453V21.8414H28.1578C28.6495 21.8414 29.1118 21.6499 29.4599 21.302C30.177 20.5844 30.1773 19.4171 29.4608 18.699Z" fill="#C9C9C9"/>
</svg>
