<svg width="13" height="10" viewBox="0 0 13 10" fill="none" xmlns="http://www.w3.org/2000/svg">
<path d="M4.66667 8.00033H0.666667C0.266667 8.00033 0 7.73366 0 7.33366C0 6.93366 0.266667 6.66699 0.666667 6.66699H4.66667C5.06667 6.66699 5.33333 6.93366 5.33333 7.33366C5.33333 7.73366 5.06667 8.00033 4.66667 8.00033ZM6.66667 4.66699H0.666667C0.266667 4.66699 0 4.40033 0 4.00033C0 3.60033 0.266667 3.33366 0.666667 3.33366H6.66667C7.06667 3.33366 7.33333 3.60033 7.33333 4.00033C7.33333 4.40033 7.06667 4.66699 6.66667 4.66699ZM10 9.33366C9.6 9.33366 9.33333 9.06699 9.33333 8.66699V3.33366C9.33333 2.93366 9.6 2.66699 10 2.66699C10.4 2.66699 10.6667 2.93366 10.6667 3.33366V8.66699C10.6667 9.06699 10.4 9.33366 10 9.33366Z" fill="white"/>
<path d="M10 9.33333C9.8 9.33333 9.66667 9.26667 9.53333 9.13333L7.53333 7.13333C7.26667 6.86667 7.26667 6.46667 7.53333 6.2C7.8 5.93333 8.2 5.93333 8.46667 6.2L10 7.73333L11.5333 6.2C11.8 5.93333 12.2 5.93333 12.4667 6.2C12.7333 6.46667 12.7333 6.86667 12.4667 7.13333L10.4667 9.13333C10.3333 9.26667 10.2 9.33333 10 9.33333ZM8.66667 1.33333H0.666667C0.266667 1.33333 0 1.06667 0 0.666667C0 0.266667 0.266667 0 0.666667 0H8.66667C9.06667 0 9.33333 0.266667 9.33333 0.666667C9.33333 1.06667 9.06667 1.33333 8.66667 1.33333Z" fill="white"/>
</svg>
