<svg width="13" height="10" viewBox="0 0 13 10" fill="none" xmlns="http://www.w3.org/2000/svg">
<path d="M4.66667 1.33366H0.666667C0.266667 1.33366 0 1.60033 0 2.00033C0 2.40033 0.266667 2.66699 0.666667 2.66699H4.66667C5.06667 2.66699 5.33333 2.40033 5.33333 2.00033C5.33333 1.60033 5.06667 1.33366 4.66667 1.33366ZM6.66667 4.66699H0.666667C0.266667 4.66699 0 4.93366 0 5.33366C0 5.73366 0.266667 6.00033 0.666667 6.00033H6.66667C7.06667 6.00033 7.33333 5.73366 7.33333 5.33366C7.33333 4.93366 7.06667 4.66699 6.66667 4.66699ZM10 0.000325203C9.6 0.000325203 9.33333 0.266992 9.33333 0.666992V6.00033C9.33333 6.40033 9.6 6.66699 10 6.66699C10.4 6.66699 10.6667 6.40033 10.6667 6.00033V0.666992C10.6667 0.266992 10.4 0.000325203 10 0.000325203Z" fill="white"/>
<path d="M10 0.000650406C9.8 0.000650406 9.66667 0.067317 9.53333 0.20065L7.53333 2.20065C7.26667 2.46732 7.26667 2.86732 7.53333 3.13398C7.8 3.40065 8.2 3.40065 8.46667 3.13398L10 1.60065L11.5333 3.13398C11.8 3.40065 12.2 3.40065 12.4667 3.13398C12.7333 2.86732 12.7333 2.46732 12.4667 2.20065L10.4667 0.20065C10.3333 0.067317 10.2 0.000650406 10 0.000650406ZM8.66667 8.00065H0.666667C0.266667 8.00065 0 8.26732 0 8.66732C0 9.06732 0.266667 9.33398 0.666667 9.33398H8.66667C9.06667 9.33398 9.33333 9.06732 9.33333 8.66732C9.33333 8.26732 9.06667 8.00065 8.66667 8.00065Z" fill="white"/>
</svg>
