<svg width="633" height="570" viewBox="0 0 633 570" fill="none" xmlns="http://www.w3.org/2000/svg">
<path d="M120.848 61.0889C244.163 -26.3654 420.295 -19.2172 534.311 78.0104C650.288 176.978 666.134 338.57 570.746 454.333C480.893 563.358 318.835 599.289 183.913 543.052L176.543 539.858L38.2057 569.304L36.9407 569.494L35.8337 569.715H35.2644L34.5686 569.873H33.3668L32.3231 570L31.6589 569.968L30.9315 570L29.8878 569.905H28.7808L28.085 569.779L27.3892 569.715L26.2823 569.494L25.2069 569.336L24.7009 569.209L23.9418 569.051L22.3921 568.545L21.6331 568.387L21.2852 568.229L20.5894 568.007L19.1661 567.375L18.2173 566.995L17.8694 566.805L17.4266 566.616L16.4462 566.046L15.023 565.287L14.5169 564.939L13.3467 564.117L12.0816 563.263L12.0184 563.137L11.6072 562.852L10.2472 561.587L9.45656 560.954L9.26679 560.733L7.49566 558.772L7.08451 558.329L6.73661 557.886L5.50315 556.115L5.06037 555.514L4.90223 555.198L3.57388 552.889L3.35249 552.509L3.22598 552.256L3.00459 551.877L2.56181 550.675L1.92927 549.346L1.80275 548.84L1.67624 548.524L1.13858 546.595L0.917192 546.025L0.853935 545.551L0.695802 544.95L0.537662 543.906L0.284647 542.578L0.22139 541.597L0.126507 541.281V540.775L0 539.067L0.031625 537.928L0.0632575 537.201L0.126507 535.524L0.253015 534.734V534.133L0.506037 533.026L0.66417 531.95L0.82231 531.318L0.948817 530.685L1.51811 528.787L1.61299 528.376L37.9844 419.256L37.2886 418.086C-32.6077 299.572 -0.948817 152.687 113.605 66.4026L120.848 61.0889Z" fill="url(#paint0_linear_1_2203)"/>
<defs>
<linearGradient id="paint0_linear_1_2203" x1="316.5" y1="0" x2="316.5" y2="570" gradientUnits="userSpaceOnUse">
<stop stop-color="#FF2147"/>
<stop offset="1" stop-color="#B50F1A"/>
</linearGradient>
</defs>
</svg>
